<svg width="18" height="21" viewBox="0 0 18 21" fill="none" xmlns="http://www.w3.org/2000/svg">
<g clip-path="url(#clip0_1_154)">
<path d="M17.6221 5.02118C17.6221 4.56353 17.1475 4.20086 16.6728 4.1102H13.7373C13.7373 2.09827 11.083 0.457649 9 0.457649C6.91699 0.457649 4.26269 2.09827 4.26269 4.1102H1.32715C0.852538 4.1102 0.37793 4.47286 0.37793 5.02118V19.6314C0.37793 20.1797 0.755859 20.5424 1.32715 20.5424H16.6728C17.2441 20.5424 17.6221 20.1797 17.6221 19.6314V5.02118ZM9 1.36863C10.6084 1.36863 12.7881 2.55592 12.7881 4.1102H5.21191C5.21191 2.55592 7.48388 1.36863 9 1.36863ZM1.32715 5.02118H16.5806V19.6314H1.32715V5.02118Z" fill="black"/>
</g>
<defs>
<clipPath id="clip0_1_154">
<rect width="18" height="21" fill="white"/>
</clipPath>
</defs>
</svg>
