<svg width="27" height="27" viewBox="0 0 27 27" fill="none" xmlns="http://www.w3.org/2000/svg">
<path d="M13.9007 6.70191C14.4069 6.25303 14.887 5.76281 15.4287 5.35191C16.5813 4.49372 18.0164 4.10422 19.4447 4.26188C20.873 4.41954 22.1886 5.11264 23.1262 6.20156C23.6467 6.83283 24.0279 7.5669 24.245 8.3557C24.4621 9.1445 24.5101 9.97025 24.386 10.7789C24.1256 12.4961 23.3281 14.0866 22.1078 15.3225C20.5412 17.0274 18.845 18.6085 17.0344 20.0517C16.0615 20.8626 15.0828 21.665 14.1142 22.4809C14.0906 22.5122 14.06 22.5375 14.025 22.555C13.9899 22.5725 13.9513 22.5816 13.9121 22.5816C13.8729 22.5816 13.8343 22.5725 13.7992 22.555C13.7641 22.5375 13.7336 22.5122 13.71 22.4809C12.3338 21.3224 10.9357 20.1893 9.57056 19.0215C7.96989 17.7176 6.49862 16.2624 5.17715 14.6762C4.31494 13.6534 3.72853 12.4271 3.47362 11.1139C2.92603 7.90763 4.63294 5.07263 7.75565 4.36978C8.61806 4.1602 9.51833 4.16199 10.3799 4.37499C11.2415 4.588 12.0389 5.00592 12.7042 5.59322C13.1278 5.94759 13.5151 6.34247 13.9007 6.70191ZM13.9176 8.61722C13.3792 8.03419 12.8755 7.43091 12.3144 6.89006C11.819 6.37398 11.2084 5.98259 10.5326 5.74794C9.85683 5.51329 9.13507 5.44205 8.42644 5.54006C7.63084 5.60945 6.87336 5.91189 6.24875 6.40953C5.62414 6.90718 5.16012 7.57795 4.91475 8.33794C4.66758 9.05053 4.58005 9.80873 4.65834 10.5589C4.73664 11.3091 4.97885 12.0328 5.36784 12.679C6.32515 14.2442 7.53977 15.6365 8.96053 16.7974C10.049 17.7829 11.1771 18.7237 12.295 19.6754C12.8207 20.1234 13.3641 20.5504 13.9057 20.9917C14.0045 20.9225 14.0905 20.871 14.1656 20.8069C15.7519 19.4569 17.3516 18.1305 18.9159 16.7569C19.9798 15.8464 20.9468 14.8285 21.8016 13.7194C22.3385 13.074 22.7326 12.3222 22.9577 11.5134C23.1829 10.7046 23.234 9.85726 23.1077 9.02728C23.0071 8.45827 22.7929 7.91535 22.478 7.4309C22.163 6.94644 21.7537 6.53039 21.2745 6.20754C20.7953 5.88469 20.2559 5.66167 19.6886 5.55178C19.1214 5.44188 18.5377 5.44737 17.9726 5.56791C17.0022 5.76099 16.1151 6.24931 15.4329 6.966C14.9064 7.49841 14.423 8.06456 13.9167 8.61806L13.9176 8.61722Z" fill="black"/>
</svg>
