<svg width="27" height="27" viewBox="0 0 27 27" fill="none" xmlns="http://www.w3.org/2000/svg">
<path d="M13.5 12.5C14.8924 12.5 16.2277 11.9469 17.2123 10.9623C18.1969 9.97774 18.75 8.64239 18.75 7.25C18.75 5.85761 18.1969 4.52226 17.2123 3.53769C16.2277 2.55312 14.8924 2 13.5 2C12.1076 2 10.7723 2.55312 9.78769 3.53769C8.80312 4.52226 8.25 5.85761 8.25 7.25C8.25 8.64239 8.80312 9.97774 9.78769 10.9623C10.7723 11.9469 12.1076 12.5 13.5 12.5ZM17 7.25C17 8.17826 16.6313 9.0685 15.9749 9.72487C15.3185 10.3813 14.4283 10.75 13.5 10.75C12.5717 10.75 11.6815 10.3813 11.0251 9.72487C10.3687 9.0685 10 8.17826 10 7.25C10 6.32174 10.3687 5.4315 11.0251 4.77513C11.6815 4.11875 12.5717 3.75 13.5 3.75C14.4283 3.75 15.3185 4.11875 15.9749 4.77513C16.6313 5.4315 17 6.32174 17 7.25ZM24 21.25C24 23 22.25 23 22.25 23H4.75C4.75 23 3 23 3 21.25C3 19.5 4.75 14.25 13.5 14.25C22.25 14.25 24 19.5 24 21.25ZM22.25 21.243C22.2482 20.8125 21.9805 19.5175 20.794 18.331C19.653 17.19 17.5057 16 13.5 16C9.4925 16 7.347 17.19 6.206 18.331C5.0195 19.5175 4.7535 20.8125 4.75 21.243H22.25Z" fill="black"/>
</svg>
